<?xml version="1.0" encoding="utf-8"?>
<!-- Generator: Adobe Illustrator 22.0.0, SVG Export Plug-In . SVG Version: 6.00 Build 0)  -->
<svg version="1.1" id="Capa_1" xmlns="http://www.w3.org/2000/svg" xmlns:xlink="http://www.w3.org/1999/xlink" x="0px" y="0px"
	 viewBox="0 0 283.5 283.5" style="enable-background:new 0 0 283.5 283.5;" xml:space="preserve">
<style type="text/css">
	.st0{fill:"#585858";stroke:"#585858";stroke-miterlimit:10;}
	.st1{fill:"#585858";}
</style>
<path class="st0" d="M139.8,85.5"/>
<polyline points="144.8,232.1 119.6,232.1 47.7,135.8 48.6,232.1 15.8,232.1 15.8,85.5 48.6,85.5 119.8,179.3 119.6,51.4 
	150.9,51.4 150.9,128.3 227.8,51.4 268.5,51.4 190.5,129.3 274.4,232.1 232,232.1 168.5,151.4 151.3,168.6 151.3,232.1 144.8,232.1 
	"/>
<line class="st1" x1="109.6" y1="179.3" x2="109.6" y2="164.9"/>
<rect x="131.8" y="118.2" transform="matrix(6.123234e-17 -1 1 6.123234e-17 -120.1628 399.6844)" width="15.9" height="283.5"/>
<rect x="131.8" y="-113.6" transform="matrix(6.123234e-17 -1 1 6.123234e-17 111.6028 167.9188)" width="15.9" height="283.5"/>
</svg>
